<?xml version="1.0" encoding="utf-8"?>
<!-- Generator: Adobe Illustrator 26.0.3, SVG Export Plug-In . SVG Version: 6.00 Build 0)  -->
<svg version="1.1" id="Layer_1" xmlns="http://www.w3.org/2000/svg" xmlns:xlink="http://www.w3.org/1999/xlink" x="0px" y="0px"
	 viewBox="0 0 512 512" style="enable-background:new 0 0 512 512;" xml:space="preserve">
<style type="text/css">
	.st0{fill:url(#SVGID_1_);}
	.st1{fill:#FFFFFF;}
</style>
<linearGradient id="SVGID_1_" gradientUnits="userSpaceOnUse" x1="-9.094947e-13" y1="0" x2="512" y2="512">
	<stop  offset="0" style="stop-color:#1E3A8A"/>
	<stop  offset="1" style="stop-color:#7F1D1D"/>
</linearGradient>
<rect class="st0" width="512" height="512"/>
<path class="st1" d="M445,298h-42v42h14.7c3.5,0,6.3,2.4,6.3,5.2v10.5c0,2.9-2.8,5.2-6.3,5.2H94.3c-3.5,0-6.3-2.4-6.3-5.2v-10.5
	c0-2.9,2.8-5.2,6.3-5.2H109v-42H67c-11.6,0-21,9.4-21,21v63c0,11.6,9.4,21,21,21h378c11.6,0,21-9.4,21-21v-63
	C466,307.4,456.6,298,445,298z M382,340V130.2c0-11.7-9.5-21.2-21.2-21.2H151.3c-11.7,0-21.3,9.5-21.3,21.2V340H382z M184.6,220.6
	l16.7-16.6c2.8-2.8,7.2-2.8,10,0.1l27.1,27.3l62.5-61.9c2.8-2.8,7.2-2.8,10,0.1l16.6,16.7c2.8,2.8,2.8,7.2-0.1,10l-84.2,83.5
	c-2.8,2.8-7.2,2.8-10-0.1l-48.6-49C181.8,227.8,181.8,223.3,184.6,220.6L184.6,220.6z"/>
</svg>
